<?xml version="1.0" encoding="iso-8859-1"?>
<!-- Generator: Adobe Illustrator 19.0.0, SVG Export Plug-In . SVG Version: 6.00 Build 0)  -->
<svg version="1.1" id="Layer_1" xmlns="http://www.w3.org/2000/svg" xmlns:xlink="http://www.w3.org/1999/xlink" x="0px" y="0px"
	 viewBox="0 0 512 512" style="enable-background:new 0 0 512 512;" xml:space="preserve">
<g>
	<path style="fill:#B3D8F4;" d="M107.468,115.163v124.105c0,16.397,8.638,30.772,21.6,38.814c3.78-5.361,10.031-8.868,17.098-8.868
		h219.668c7.067,0,13.318,3.508,17.098,8.868c12.962-8.041,21.6-22.417,21.6-38.814V115.163H107.468z"/>
	<path style="fill:#B3D8F4;" d="M329.921,370.964c-17.452,21.477-44.08,35.203-73.921,35.203c-29.839,0-56.468-13.728-73.921-35.203
		l-24.927,133.181h197.695L329.921,370.964z"/>
</g>
<path style="fill:#3D9AE2;" d="M404.533,115.162H107.468v-27.39c0-10.072,8.166-18.238,18.238-18.238h260.588
	c10.072,0,18.238,8.166,18.238,18.238L404.533,115.162L404.533,115.162z"/>
<g>
	<path style="fill:#FFFFFF;" d="M160.815,311.032c0,52.542,42.616,95.136,95.186,95.136s95.186-42.593,95.186-95.136H160.815z"/>
	<ellipse style="fill:#FFFFFF;" cx="256" cy="138.533" rx="97.406" ry="130.68"/>
</g>
<g>
	<ellipse style="fill:#3D9AE2;" cx="256" cy="138.533" rx="58.576" ry="78.936"/>
	<path style="fill:#3D9AE2;" d="M386.751,311.032H125.25v-20.903c0-11.551,9.364-20.915,20.915-20.915h219.672
		c11.551,0,20.915,9.364,20.915,20.915V311.032z"/>
</g>
<circle cx="201.084" cy="64.309" r="7.845"/>
<circle cx="310.917" cy="64.309" r="7.845"/>
<circle cx="201.084" cy="213.804" r="7.845"/>
<circle cx="310.917" cy="213.804" r="7.845"/>
<path d="M313.378,353.901l-12.568-9.419c-10.704,14.281-27.037,22.47-44.81,22.47v15.706
	C278.432,382.658,299.882,371.908,313.378,353.901z"/>
<path d="M322.43,138.534c0-22.758-6.642-44.242-18.703-60.495C291.144,61.084,274.195,51.747,256,51.747
	s-35.144,9.337-47.725,26.292c-12.062,16.252-18.703,37.736-18.703,60.495s6.642,44.242,18.703,60.495
	c12.582,16.955,29.531,26.292,47.725,26.292c18.194,0,35.144-9.337,47.726-26.292C315.787,182.776,322.43,161.292,322.43,138.534z
	 M256,209.615c-27.968,0-50.724-31.887-50.724-71.082S228.031,67.451,256,67.451s50.724,31.887,50.724,71.082
	S283.97,209.615,256,209.615z"/>
<path d="M386.304,61.681h-42.74c-3.635-7.18-7.8-13.96-12.478-20.243C311.195,14.716,284.529,0,256,0s-55.194,14.716-75.086,41.437
	c-4.677,6.283-8.842,13.064-12.478,20.243h-42.709c-14.399,0-26.113,11.71-26.113,26.103v19.521v7.849v124.121
	c0,16.211,7.155,31.169,19.433,41.263c-1.066,3.003-1.651,6.23-1.651,9.593v28.757h35.861c1.531,20.196,8.918,38.782,20.46,54.067
	L147.694,512h216.613l-26.025-139.047c11.543-15.285,18.929-33.871,20.46-54.067h35.861v-28.757c0-3.363-0.585-6.591-1.651-9.593
	c12.278-10.093,19.433-25.051,19.433-41.263V115.153v-7.849V87.783C412.386,73.391,400.686,61.681,386.304,61.681z M166.612,496.294
	l20.373-108.856c18.281,16.513,42.493,26.582,69.015,26.582c26.521,0,50.733-10.069,69.014-26.582l20.374,108.856H166.612z
	 M256,398.315c-45.506,0-82.974-34.97-86.963-79.43h173.925C338.975,363.345,301.507,398.315,256,398.315z M378.898,303.179H133.103
	v-13.051c0-7.203,5.859-13.062,13.062-13.062h219.672c7.202,0,13.062,5.859,13.062,13.062V303.179z M372.703,107.304v15.706h23.977
	v116.263c0,11.068-4.731,21.302-12.876,28.414c-4.927-3.953-11.174-6.325-17.967-6.325H146.164c-6.793,0-13.041,2.373-17.968,6.325
	c-8.146-7.113-12.876-17.346-12.876-28.414V123.01h23.977v-15.706H115.32V87.783c0-5.734,4.669-10.397,10.408-10.397h35.844
	c-6.999,18.789-10.703,39.602-10.703,61.147c0,46.747,17.629,89.998,47.158,115.696l10.31-11.847
	c-26.151-22.757-41.763-61.579-41.763-103.848C166.575,70.807,206.691,15.706,256,15.706s89.425,55.101,89.425,122.829
	c0,42.269-15.612,81.091-41.763,103.848l10.31,11.847c29.53-25.697,47.158-68.948,47.158-115.696
	c0-21.545-3.704-42.358-10.703-61.147h35.876c5.721,0,10.376,4.665,10.376,10.397v19.521
	C396.68,107.304,372.703,107.304,372.703,107.304z"/>
<g>
</g>
<g>
</g>
<g>
</g>
<g>
</g>
<g>
</g>
<g>
</g>
<g>
</g>
<g>
</g>
<g>
</g>
<g>
</g>
<g>
</g>
<g>
</g>
<g>
</g>
<g>
</g>
<g>
</g>
</svg>
